<svg width="24" height="25" viewBox="0 0 24 25" fill="none" xmlns="http://www.w3.org/2000/svg">
<mask id="mask0_251_355" style="mask-type:alpha" maskUnits="userSpaceOnUse" x="0" y="0" width="24" height="25">
<rect y="0.503906" width="24" height="24" fill="#D9D9D9"/>
</mask>
<g mask="url(#mask0_251_355)">
<path d="M11.4752 14.9789L7.8502 11.3539C7.8002 11.3039 7.7627 11.2497 7.7377 11.1914C7.7127 11.1331 7.7002 11.0706 7.7002 11.0039C7.7002 10.8706 7.74603 10.7539 7.8377 10.6539C7.92936 10.5539 8.0502 10.5039 8.2002 10.5039H15.8002C15.9502 10.5039 16.071 10.5539 16.1627 10.6539C16.2544 10.7539 16.3002 10.8706 16.3002 11.0039C16.3002 11.0372 16.2502 11.1539 16.1502 11.3539L12.5252 14.9789C12.4419 15.0622 12.3585 15.1206 12.2752 15.1539C12.1919 15.1872 12.1002 15.2039 12.0002 15.2039C11.9002 15.2039 11.8085 15.1872 11.7252 15.1539C11.6419 15.1206 11.5585 15.0622 11.4752 14.9789Z" fill="#232528" fill-opacity="0.8"/>
</g>
</svg>
