<svg width="13" height="13" viewBox="0 0 13 13" fill="none" xmlns="http://www.w3.org/2000/svg">
<path d="M10.9998 3.4L2.0998 12.3C1.91647 12.4833 1.68314 12.575 1.3998 12.575C1.11647 12.575 0.883138 12.4833 0.699805 12.3C0.516471 12.1167 0.424805 11.8833 0.424805 11.6C0.424805 11.3167 0.516471 11.0833 0.699805 10.9L9.5998 2H1.9998C1.71647 2 1.47897 1.90417 1.2873 1.7125C1.09564 1.52083 0.999805 1.28333 0.999805 1C0.999805 0.716667 1.09564 0.479167 1.2873 0.2875C1.47897 0.0958333 1.71647 0 1.9998 0H11.9998C12.2831 0 12.5206 0.0958333 12.7123 0.2875C12.904 0.479167 12.9998 0.716667 12.9998 1V11C12.9998 11.2833 12.904 11.5208 12.7123 11.7125C12.5206 11.9042 12.2831 12 11.9998 12C11.7165 12 11.479 11.9042 11.2873 11.7125C11.0956 11.5208 10.9998 11.2833 10.9998 11V3.4Z" fill="#232528" fill-opacity="0.8"/>
</svg>
