<svg width="158" height="158" viewBox="0 0 158 158" fill="none" xmlns="http://www.w3.org/2000/svg">
<path d="M79 25.675C79 22.4027 81.6592 19.7193 84.9152 20.046C90.6668 20.6231 96.3139 22.0399 101.674 24.2601C108.863 27.2377 115.394 31.6021 120.896 37.1039C126.398 42.6058 130.762 49.1375 133.74 56.326C135.96 61.6861 137.377 67.3332 137.954 73.0848C138.281 76.3408 135.597 79 132.325 79C129.053 79 126.438 76.3371 126.03 73.0904C125.503 68.8963 124.416 64.7825 122.792 60.8608C120.41 55.11 116.918 49.8846 112.517 45.4831C108.115 41.0816 102.89 37.5902 97.1392 35.2081C93.2175 33.5837 89.1037 32.4969 84.9096 31.9698C81.6629 31.5619 79 28.9473 79 25.675Z" fill="#C09C52"/>
</svg>
