<svg width="24" height="24" viewBox="0 0 24 24" fill="none" xmlns="http://www.w3.org/2000/svg">
<mask id="mask0_100_20911" style="mask-type:alpha" maskUnits="userSpaceOnUse" x="0" y="0" width="24" height="24">
<rect width="24" height="24" fill="#D9D9D9"/>
</mask>
<g mask="url(#mask0_100_20911)">
<path d="M7.8499 12.9995L10.6999 15.8495C10.8999 16.0495 10.9957 16.2829 10.9874 16.5495C10.9791 16.8162 10.8832 17.0495 10.6999 17.2495C10.4999 17.4495 10.2624 17.5537 9.9874 17.562C9.7124 17.5704 9.4749 17.4745 9.2749 17.2745L4.6999 12.6995C4.4999 12.4995 4.3999 12.2662 4.3999 11.9995C4.3999 11.7329 4.4999 11.4995 4.6999 11.2995L9.2749 6.72452C9.4749 6.52452 9.7124 6.42869 9.9874 6.43702C10.2624 6.44536 10.4999 6.54952 10.6999 6.74952C10.8832 6.94952 10.9791 7.18286 10.9874 7.44952C10.9957 7.71619 10.8999 7.94952 10.6999 8.14952L7.8499 10.9995H18.9999C19.2832 10.9995 19.5207 11.0954 19.7124 11.287C19.9041 11.4787 19.9999 11.7162 19.9999 11.9995C19.9999 12.2829 19.9041 12.5204 19.7124 12.712C19.5207 12.9037 19.2832 12.9995 18.9999 12.9995H7.8499Z" fill="#232528" fill-opacity="0.56"/>
</g>
</svg>
